<?xml version="1.0" encoding="UTF-8"?>
<svg version="1.1" xmlns="http://www.w3.org/2000/svg" width="72" height="72">
<path d="M0 0 C13.05516408 6.26942908 21.89100717 14.5767902 27.88671875 27.80078125 C30.28706597 34.70311303 30.66476227 42.55004943 27.765625 49.328125 C24.22992123 56.41147748 20.02586791 60.23042136 12.765625 63.328125 C-0.41533213 67.72177738 -15.62221548 63.04980662 -27.671875 57.578125 C-34.16220937 54.14665316 -38.40187357 49.91677363 -41.734375 43.390625 C-42.83043208 36.67727536 -41.96507768 31.9688801 -38.171875 26.265625 C-37.20941412 24.9408259 -36.235885 23.62365629 -35.234375 22.328125 C-36.224375 21.998125 -37.214375 21.668125 -38.234375 21.328125 C-38.234375 20.338125 -38.234375 19.348125 -38.234375 18.328125 C-36.584375 18.328125 -34.934375 18.328125 -33.234375 18.328125 C-32.002981 15.86533699 -32.16278304 14.0486195 -32.234375 11.328125 C-30.914375 11.328125 -29.594375 11.328125 -28.234375 11.328125 C-28.08742188 10.65265625 -27.94046875 9.9771875 -27.7890625 9.28125 C-26.69675634 4.93713586 -25.86561967 1.9909319 -22.734375 -1.296875 C-14.95872804 -4.35159345 -7.58868303 -3.07883712 0 0 Z " fill="#C4DCF5" transform="translate(42.234375,4.671875)"/>
<path d="M0 0 C1.58206057 0.00667536 3.16410534 0.0186375 4.74609375 0.03515625 C5.55240234 0.03966797 6.35871094 0.04417969 7.18945312 0.04882812 C9.18753131 0.06065107 11.18557158 0.07858711 13.18359375 0.09765625 C13.74609375 2.03515625 13.74609375 2.03515625 14.18359375 4.09765625 C13.85359375 4.42765625 13.52359375 4.75765625 13.18359375 5.09765625 C12.70533082 8.54114938 12.93971643 9.77248649 15.05859375 12.59765625 C15.75984375 13.42265625 16.46109375 14.24765625 17.18359375 15.09765625 C19.54915499 19.47394454 19.34845767 23.2341707 19.18359375 28.09765625 C18.52359375 28.09765625 17.86359375 28.09765625 17.18359375 28.09765625 C16.52359375 30.07765625 15.86359375 32.05765625 15.18359375 34.09765625 C15.84359375 34.53078125 16.50359375 34.96390625 17.18359375 35.41015625 C18.17359375 36.24546875 18.17359375 36.24546875 19.18359375 37.09765625 C19.18359375 38.08765625 19.18359375 39.07765625 19.18359375 40.09765625 C17.14383161 41.06003661 15.10169329 42.01738152 13.05859375 42.97265625 C11.92164063 43.50632813 10.7846875 44.04 9.61328125 44.58984375 C2.15012584 47.87091207 -3.98069545 49.22584253 -11.8515625 46.35546875 C-12.47933594 46.08476563 -13.10710938 45.8140625 -13.75390625 45.53515625 C-18.71357379 43.43722707 -23.50161246 43.89835148 -28.81640625 44.09765625 C-28.81640625 37.49765625 -28.81640625 30.89765625 -28.81640625 24.09765625 C-20.59418403 24.09765625 -20.59418403 24.09765625 -16.81640625 26.09765625 C-16.48640625 26.75765625 -16.15640625 27.41765625 -15.81640625 28.09765625 C-13.92107283 28.56288688 -13.92107283 28.56288688 -11.75390625 28.72265625 C-10.45453125 28.84640625 -9.15515625 28.97015625 -7.81640625 29.09765625 C-7.81640625 27.77765625 -7.81640625 26.45765625 -7.81640625 25.09765625 C-8.47640625 25.09765625 -9.13640625 25.09765625 -9.81640625 25.09765625 C-9.5064734 19.20893218 -8.52349473 16.28802061 -4.8984375 11.69140625 C-3.34807756 9.40784359 -3.38166069 7.7785872 -3.81640625 5.09765625 C-4.00203125 4.35515625 -4.18765625 3.61265625 -4.37890625 2.84765625 C-4.52328125 2.27015625 -4.66765625 1.69265625 -4.81640625 1.09765625 C-3.81640625 0.09765625 -3.81640625 0.09765625 0 0 Z " fill="#558BA6" transform="translate(40.81640625,11.90234375)"/>
<path d="M0 0 C8.22222222 0 8.22222222 0 12 2 C12.33 2.66 12.66 3.32 13 4 C14.89614151 4.5891301 14.89614151 4.5891301 17.18359375 4.9296875 C18.02857422 5.08566406 18.87355469 5.24164063 19.74414062 5.40234375 C21.5346073 5.71655182 23.32629406 6.02388757 25.11914062 6.32421875 C25.96541016 6.48277344 26.81167969 6.64132813 27.68359375 6.8046875 C28.46275146 6.93858887 29.24190918 7.07249023 30.04467773 7.21044922 C32 8 32 8 33.26977539 10.07470703 C33.63123657 11.02772705 33.63123657 11.02772705 34 12 C34.66 11.67 35.32 11.34 36 11 C37.66345582 10.87917466 39.33220591 10.8246206 41 10.8125 C41.886875 10.79832031 42.77375 10.78414062 43.6875 10.76953125 C46 11 46 11 48 13 C48 13.99 48 14.98 48 16 C45.96023786 16.96238036 43.91809954 17.91972527 41.875 18.875 C40.73804688 19.40867187 39.60109375 19.94234375 38.4296875 20.4921875 C30.96653209 23.77325582 24.8357108 25.12818628 16.96484375 22.2578125 C16.02318359 21.85175781 16.02318359 21.85175781 15.0625 21.4375 C10.10283246 19.33957082 5.31479379 19.80069523 0 20 C0 13.4 0 6.8 0 0 Z " fill="#0D0F10" transform="translate(12,36)"/>
<path d="M0 0 C1.58206057 0.00667536 3.16410534 0.0186375 4.74609375 0.03515625 C5.55240234 0.03966797 6.35871094 0.04417969 7.18945312 0.04882812 C9.18753131 0.06065107 11.18557158 0.07858711 13.18359375 0.09765625 C13.74609375 2.03515625 13.74609375 2.03515625 14.18359375 4.09765625 C13.85359375 4.42765625 13.52359375 4.75765625 13.18359375 5.09765625 C12.70533082 8.54114938 12.93971643 9.77248649 15.05859375 12.59765625 C15.75984375 13.42265625 16.46109375 14.24765625 17.18359375 15.09765625 C19.54915499 19.47394454 19.34845767 23.2341707 19.18359375 28.09765625 C18.19359375 28.09765625 17.20359375 28.09765625 16.18359375 28.09765625 C16.085625 27.44539063 15.98765625 26.793125 15.88671875 26.12109375 C14.85129896 20.06924362 13.6316071 15.5456696 9.18359375 11.09765625 C6.13028636 10.66412376 3.23402861 10.63660634 0.18359375 11.09765625 C-3.86744597 14.50905812 -5.15668129 19.20146762 -6.81640625 24.09765625 C-7.47640625 24.09765625 -8.13640625 24.09765625 -8.81640625 24.09765625 C-9.4009344 18.36928039 -8.33515403 16.02175302 -4.93359375 11.7265625 C-3.35471827 9.42449581 -3.37630969 7.81158502 -3.81640625 5.09765625 C-4.00203125 4.35515625 -4.18765625 3.61265625 -4.37890625 2.84765625 C-4.52328125 2.27015625 -4.66765625 1.69265625 -4.81640625 1.09765625 C-3.81640625 0.09765625 -3.81640625 0.09765625 0 0 Z " fill="#0B0D0F" transform="translate(40.81640625,11.90234375)"/>
<path d="M0 0 C13.6332574 0.77904328 13.6332574 0.77904328 20 3 C20 3.66 20 4.32 20 5 C18.56260487 5.02712066 17.12506137 5.04645067 15.6875 5.0625 C14.48673828 5.07990234 14.48673828 5.07990234 13.26171875 5.09765625 C11 5 11 5 8 4 C8 4.99 8 5.98 8 7 C10.27076842 7.02699725 12.54162821 7.04639453 14.8125 7.0625 C16.70935547 7.07990234 16.70935547 7.07990234 18.64453125 7.09765625 C21.99605237 7.16159116 21.99605237 7.16159116 25 6 C27.33299825 5.96045766 29.66708189 5.95598268 32 6 C26.94776948 10.39324393 20.0622088 13.78992049 13.26171875 13.47265625 C8.25231338 12.4257857 3.6167721 10.15449365 -1 8 C-0.67 5.36 -0.34 2.72 0 0 Z " fill="#DEDFDD" transform="translate(23,44)"/>
<path d="M0 0 C0.66 0 1.32 0 2 0 C0.15962441 4.73239437 0.15962441 4.73239437 -1.0625 6.78125 C-2.29725422 9.70350166 -2.19367852 12.09078829 -2.125 15.25 C-2.10695313 16.32765625 -2.08890625 17.4053125 -2.0703125 18.515625 C-2.04710937 19.33546875 -2.02390625 20.1553125 -2 21 C-3.65 20.67 -5.3 20.34 -7 20 C-7.33 18.35 -7.66 16.7 -8 15 C-8.66 15 -9.32 15 -10 15 C-10 13.35 -10 11.7 -10 10 C-9.67 11.32 -9.34 12.64 -9 14 C-8.34 14 -7.68 14 -7 14 C-6.9175 13.13375 -6.835 12.2675 -6.75 11.375 C-5.69952939 6.64788227 -3.3985223 3.3985223 0 0 Z " fill="#465E6F" transform="translate(41,22)"/>
<path d="M0 0 C2.97 0.495 2.97 0.495 6 1 C5.69128878 2.79232337 5.37790936 4.58384321 5.0625 6.375 C4.88847656 7.37273438 4.71445312 8.37046875 4.53515625 9.3984375 C4 12 4 12 3 14 C2.01 14 1.02 14 0 14 C0 9.38 0 4.76 0 0 Z " fill="#445D6F" transform="translate(15,39)"/>
<path d="M0 0 C1 2 1 2 0.22265625 4.3828125 C-0.16019531 5.28773437 -0.54304688 6.19265625 -0.9375 7.125 C-1.31777344 8.03507812 -1.69804688 8.94515625 -2.08984375 9.8828125 C-2.39019531 10.58148438 -2.69054688 11.28015625 -3 12 C-3.66 12 -4.32 12 -5 12 C-5.3125 8.8125 -5.3125 8.8125 -5 5 C-2.5 2.0625 -2.5 2.0625 0 0 Z " fill="#0A0B0D" transform="translate(37,24)"/>
<path d="M0 0 C1.65 0.33 3.3 0.66 5 1 C4.67 2.65 4.34 4.3 4 6 C2.35 5.67 0.7 5.34 -1 5 C-0.67 3.35 -0.34 1.7 0 0 Z " fill="#ACBACE" transform="translate(28,7)"/>
<path d="M0 0 C3.63 0 7.26 0 11 0 C8 3 8 3 4.9375 3.375 C3.968125 3.25125 2.99875 3.1275 2 3 C1.34 2.01 0.68 1.02 0 0 Z " fill="#4B7991" transform="translate(40,15)"/>
<path d="M0 0 C0.99 0 1.98 0 3 0 C2.67 2.97 2.34 5.94 2 9 C1.01 8.67 0.02 8.34 -1 8 C-0.67 5.36 -0.34 2.72 0 0 Z " fill="#5698DA" transform="translate(23,44)"/>
<path d="M0 0 C0.99 0 1.98 0 3 0 C2.34 2.97 1.68 5.94 1 9 C0.67 9 0.34 9 0 9 C0 6.03 0 3.06 0 0 Z " fill="#5086A1" transform="translate(18,40)"/>
</svg>
